<?xml version="1.0" standalone="no"?><!DOCTYPE svg PUBLIC "-//W3C//DTD SVG 1.1//EN" "http://www.w3.org/Graphics/SVG/1.1/DTD/svg11.dtd"><svg t="1521449188182" class="icon" style="" viewBox="0 0 1024 1024" version="1.1" xmlns="http://www.w3.org/2000/svg" p-id="18882" xmlns:xlink="http://www.w3.org/1999/xlink" width="128" height="128"><defs><style type="text/css"></style></defs><path d="M810.666667 640h-85.333334v-85.333333h85.333334m0 256h-85.333334v-85.333334h85.333334M554.666667 298.666667h-85.333334V213.333333h85.333334m0 256h-85.333334V384h85.333334m0 256h-85.333334v-85.333333h85.333334m0 256h-85.333334v-85.333334h85.333334m-256-256H213.333333V384h85.333334m0 256H213.333333v-85.333333h85.333334m0 256H213.333333v-85.333334h85.333334m341.333333-256V213.333333l-128-128-128 128v85.333334H128v597.333333h768V469.333333h-256z" fill="#3F51B5" p-id="18883"></path></svg>