<?xml version="1.0" standalone="no"?><!DOCTYPE svg PUBLIC "-//W3C//DTD SVG 1.1//EN" "http://www.w3.org/Graphics/SVG/1.1/DTD/svg11.dtd"><svg t="1521184554265" class="icon" style="" viewBox="0 0 1024 1024" version="1.1" xmlns="http://www.w3.org/2000/svg" p-id="3974" xmlns:xlink="http://www.w3.org/1999/xlink" width="48" height="48"><defs><style type="text/css"></style></defs><path d="M926.592 922.688l-157.312 0c-18.432 0-33.344-21.056-33.344-46.976L735.936 745.6c0-25.984 14.912-46.976 33.344-46.976l157.312 0c18.432 0 33.408 20.992 33.408 46.976l0 130.048C960 901.632 945.088 922.688 926.592 922.688zM773.312 513.152l-224 0L549.312 624 512 624 512 513.152 249.472 513.152C171.008 513.216 174.848 566.976 174.848 624L138.688 624 138.688 569.28c0-49.472 39.552-94.144 88.448-94.208L512 474.688 512 400l37.312 0 0 74.688 260.16 0c48.896 0.064 74.624 25.152 74.688 74.688L884.16 624 848 624C847.936 550.272 835.712 513.216 773.312 513.152zM653.504 325.312 406.528 325.312c-24.256 0-43.84-21.824-43.84-48.768L362.688 150.08c0-26.944 19.648-48.768 43.84-48.768l246.976 0c24.256 0 43.968 21.824 43.968 48.768l0 126.464C697.472 303.488 677.824 325.312 653.504 325.312zM288 745.6l0 130.048c0 25.92-14.976 46.976-33.344 46.976L97.344 922.624C78.912 922.688 64 901.632 64 875.712L64 745.6c0-25.984 14.912-46.976 33.344-46.976l157.312 0C273.024 698.688 288 719.68 288 745.6zM433.344 698.688l157.312 0c18.432 0 33.344 20.992 33.344 46.976l0 130.048c0 25.92-14.912 46.976-33.344 46.976L433.344 922.688c-18.432 0-33.344-21.056-33.344-46.976L400 745.6C400 719.68 414.912 698.688 433.344 698.688z" p-id="3975" fill="#3F51B5"></path></svg>