<?xml version="1.0" standalone="no"?><!DOCTYPE svg PUBLIC "-//W3C//DTD SVG 1.1//EN" "http://www.w3.org/Graphics/SVG/1.1/DTD/svg11.dtd"><svg t="1521445884519" class="icon" style="" viewBox="0 0 1024 1024" version="1.1" xmlns="http://www.w3.org/2000/svg" p-id="18528" xmlns:xlink="http://www.w3.org/1999/xlink" width="128" height="128"><defs><style type="text/css"></style></defs><path d="M298.666667 597.333333a85.333333 85.333333 0 0 1-85.333334-85.333333 85.333333 85.333333 0 0 1 85.333334-85.333333 85.333333 85.333333 0 0 1 85.333333 85.333333 85.333333 85.333333 0 0 1-85.333333 85.333333m241.066666-170.666666A255.573333 255.573333 0 0 0 298.666667 256a256 256 0 0 0-256 256 256 256 0 0 0 256 256 255.573333 255.573333 0 0 0 241.066666-170.666667H725.333333v170.666667h170.666667v-170.666667h85.333333v-170.666666H539.733333z" fill="#3F51B5" p-id="18529"></path></svg>