<?xml version="1.0" standalone="no"?><!DOCTYPE svg PUBLIC "-//W3C//DTD SVG 1.1//EN" "http://www.w3.org/Graphics/SVG/1.1/DTD/svg11.dtd"><svg t="1521614565822" class="icon" style="" viewBox="0 0 1024 1024" version="1.1" xmlns="http://www.w3.org/2000/svg" p-id="1737" xmlns:xlink="http://www.w3.org/1999/xlink" width="128" height="128"><defs><style type="text/css"></style></defs><path d="M694.272 538.304a0.417 0.399 0 1 0 53.376 0 0.417 0.399 0 1 0-53.376 0Z" p-id="1738" fill="#2c2c2c"></path><path d="M1024 512c0 159.04-134.72 288-300.864 288-69.888 0-134.144-22.848-185.216-61.056 6.912-9.088 11.136-20.352 11.136-32.448L549.056 376c0-28.288-22.336-51.776-51.136-55.04C553.088 261.504 633.472 224 723.136 224 889.28 224 1024 352.96 1024 512zM915.648 546.88c0-12.608-10.752-22.976-24-22.976l-118.72 0c-4.224-13.888-14.656-25.408-28.032-31.616L744.896 379.84c0-12.672-10.752-22.912-24-22.912s-24.064 10.304-24.064 22.912l0 112.896c-17.216 8.512-28.992 25.6-28.992 45.568 0 28.288 24 51.328 53.632 51.328 17.216 0 32.448-7.744 42.176-19.776l128 0C904.896 569.856 915.648 559.552 915.648 546.88z" p-id="1739" fill="#2c2c2c"></path><path d="M50.624 447.168 50.624 513.28l110.464 0L161.088 447.168 50.624 447.168zM350.72 552l0 65.984 110.464 0L461.184 552 350.72 552zM312.896 549.888 202.496 549.888l0 66.112 110.4 0L312.896 549.888zM161.088 710.528 161.088 644.48 50.624 644.48l0 65.984L161.088 710.464zM461.184 517.376 461.184 451.264 350.72 451.264l0 66.112L461.184 517.376zM524.48 704.832c0 29.12-24.64 52.736-55.04 52.736L55.104 757.568c-30.4 0-55.04-23.616-55.04-52.736L0.064 390.912c0-29.12 24.704-52.672 55.04-52.672l50.752 0 0 56.96 79.424 0 0-56.96L350.72 338.24l0 56.96 79.36 0 0-56.96 39.424 0c30.4 0 55.04 23.552 55.04 52.672L524.544 704.832zM312.896 712.576l0-66.048L202.496 646.528l0 66.048L312.896 712.576zM312.896 515.264 312.896 449.28 202.496 449.28l0 65.984L312.896 515.264zM161.088 613.888 161.088 547.904 50.624 547.904l0 65.984L161.088 613.888z" p-id="1740" fill="#2c2c2c"></path><path d="M372.544 295.296l37.952 0 0 85.824-37.952 0 0-85.824Z" p-id="1741" fill="#2c2c2c"></path><path d="M123.072 295.296l37.952 0 0 85.824-37.952 0 0-85.824Z" p-id="1742" fill="#2c2c2c"></path></svg>