<?xml version="1.0" standalone="no"?><!DOCTYPE svg PUBLIC "-//W3C//DTD SVG 1.1//EN" "http://www.w3.org/Graphics/SVG/1.1/DTD/svg11.dtd"><svg t="1521614992872" class="icon" style="" viewBox="0 0 1024 1024" version="1.1" xmlns="http://www.w3.org/2000/svg" p-id="4244" xmlns:xlink="http://www.w3.org/1999/xlink" width="128" height="128"><defs><style type="text/css"></style></defs><path d="M949.056 815.168a682.688 682.688 0 0 1-67.056-27.2 97.232 97.232 0 0 1-38.016-34.608 110.88 110.88 0 0 1-17.216-47.872h59.536l2.512-5.376a185.28 185.28 0 0 0 5.92-20.8q3.76-15.424 7.712-38.016c2.624-15.056 6.4-36.096 9.248-63.12s5.792-56.896 7.472-89.6a300.576 300.576 0 0 0-5.952-73.872 196.8 196.8 0 0 0-18.288-55.408A154.224 154.224 0 0 0 865.6 320.48a156.592 156.592 0 0 0-34.24-25.6 191.584 191.584 0 0 0-36.576-14.704 216.912 216.912 0 0 0-41.248-7.888h-1.008q-1.44 0-5.024-0.176t-5.024-0.176a99.568 99.568 0 0 0-45.536 5.744 61.248 61.248 0 0 0-30.48 35.2 25.216 25.216 0 0 0-1.792 5.744 1.456 1.456 0 0 1-1.072 0.352 31.568 31.568 0 0 0-24.928-0.176A68.8 68.8 0 0 0 608 337.504a90.288 90.288 0 0 0-24.208 41.6 256.592 256.592 0 0 0-10.944 59.712 666.944 666.944 0 0 0-0.544 71.536q1.6 39.808 5.2 70.64t8.608 63.472q5.024 32.64 7.168 43.568t3.584 17.392h59.536a110.56 110.56 0 0 1-17.392 47.696 98.08 98.08 0 0 1-38.192 34.784 350.56 350.56 0 0 1-18.192 8.256c23.696 8.88 45.712 17.488 65.76 25.76a185.424 185.424 0 0 1 58.448 33.152 103.36 103.36 0 0 1 24 41.712 173.968 173.968 0 0 1 9.424 44.72l0.832 18.176H1008v-122.24a2191.168 2191.168 0 0 0-58.944-22.272z" fill="#3F51B5" p-id="4245"></path><path d="M124.4 750.192a776.816 776.816 0 0 1-81.712 33.264q-13.696 4.944-26.688 9.744v166.304L741.184 960l-0.848-18.496a173.936 173.936 0 0 0-9.424-44.72 103.376 103.376 0 0 0-24-41.728 185.44 185.44 0 0 0-58.448-33.152q-43.84-18.08-99.296-38.112a776.624 776.624 0 0 1-81.6-33.376 119.2 119.2 0 0 1-50.704-49.264 136.64 136.64 0 0 1-18.016-67.296 92.128 92.128 0 0 1 28.352-55.856 173.536 173.536 0 0 0 28.416-53.296q39.568-15.872 39.6-66.608a89.904 89.904 0 0 0-12.432-53.744q3.456-23.648 7.792-72.656a150.4 150.4 0 0 0-12.624-72.88 202.016 202.016 0 0 0-42.752-63.44 219.536 219.536 0 0 0-63.84-44.112 174.144 174.144 0 0 0-150.016-0.096A219.536 219.536 0 0 0 157.456 195.2a202.016 202.016 0 0 0-42.816 63.36 150.4 150.4 0 0 0-12.8 72.864q4.272 49.008 7.696 72.656a89.904 89.904 0 0 0-12.512 53.728q0 50.736 39.504 66.672a173.552 173.552 0 0 0 28.336 53.328 92.128 92.128 0 0 1 28.336 55.904 136.656 136.656 0 0 1-18.096 67.2 119.216 119.216 0 0 1-50.704 49.28z" fill="#3F51B5" p-id="4246"></path></svg>