<?xml version="1.0" standalone="no"?><!DOCTYPE svg PUBLIC "-//W3C//DTD SVG 1.1//EN" "http://www.w3.org/Graphics/SVG/1.1/DTD/svg11.dtd"><svg t="1521448552582" class="icon" style="" viewBox="0 0 1024 1024" version="1.1" xmlns="http://www.w3.org/2000/svg" p-id="18705" xmlns:xlink="http://www.w3.org/1999/xlink" width="128" height="128"><defs><style type="text/css"></style></defs><path d="M384 501.333333A53.333333 53.333333 0 0 0 330.666667 554.666667 53.333333 53.333333 0 0 0 384 608 53.333333 53.333333 0 0 0 437.333333 554.666667 53.333333 53.333333 0 0 0 384 501.333333m256 0A53.333333 53.333333 0 0 0 586.666667 554.666667 53.333333 53.333333 0 0 0 640 608 53.333333 53.333333 0 0 0 693.333333 554.666667 53.333333 53.333333 0 0 0 640 501.333333M512 85.333333A426.666667 426.666667 0 0 0 85.333333 512a426.666667 426.666667 0 0 0 426.666667 426.666667 426.666667 426.666667 0 0 0 426.666667-426.666667A426.666667 426.666667 0 0 0 512 85.333333m0 768c-188.16 0-341.333333-153.173333-341.333333-341.333333 0-12.373333 0-24.746667 2.133333-36.693333 100.693333-44.8 180.48-127.146667 222.293333-229.12a425.557333 425.557333 0 0 0 444.16 169.386666c8.96 30.293333 14.08 62.72 14.08 96.426667 0 188.16-153.173333 341.333333-341.333333 341.333333z" fill="#3F51B5" p-id="18706"></path></svg>